<svg xmlns="http://www.w3.org/2000/svg" width="101" height="16" fill="none"><g fill="#FFE550" clip-path="url('#a')"><path d="M7.71.519c.292-.692 1.288-.692 1.58 0L11.014 4.6c.123.291.402.49.722.516l4.476.353c.758.06 1.066.991.488 1.479l-3.41 2.876a.835.835 0 0 0-.276.835l1.042 4.3c.176.728-.629 1.304-1.278.914l-3.832-2.305a.867.867 0 0 0-.892 0l-3.832 2.305c-.65.39-1.454-.186-1.278-.914l1.042-4.3a.835.835 0 0 0-.276-.835L.3 6.949c-.578-.488-.27-1.42.488-1.48l4.476-.352a.854.854 0 0 0 .722-.516L7.71.519Zm21 0c.292-.692 1.288-.692 1.58 0L32.014 4.6c.123.291.402.49.722.516l4.476.353c.758.06 1.066.991.488 1.479l-3.41 2.876a.835.835 0 0 0-.276.835l1.042 4.3c.176.728-.629 1.304-1.278.914l-3.832-2.305a.867.867 0 0 0-.892 0l-3.832 2.305c-.65.39-1.454-.186-1.278-.914l1.042-4.3a.834.834 0 0 0-.276-.835L21.3 6.949c-.578-.488-.27-1.42.488-1.48l4.476-.352a.854.854 0 0 0 .722-.516L28.71.519Zm21 0c.292-.692 1.288-.692 1.58 0L53.014 4.6c.123.291.402.49.722.516l4.476.353c.758.06 1.066.991.488 1.479l-3.41 2.876a.835.835 0 0 0-.276.835l1.042 4.3c.176.728-.629 1.304-1.278.914l-3.832-2.305a.867.867 0 0 0-.892 0l-3.832 2.305c-.65.39-1.454-.186-1.278-.914l1.042-4.3a.834.834 0 0 0-.275-.835L42.3 6.949c-.579-.488-.271-1.42.487-1.48l4.476-.352a.854.854 0 0 0 .722-.516L49.71.519Zm21 0c.292-.692 1.288-.692 1.58 0L74.014 4.6c.124.291.402.49.722.516l4.476.353c.758.06 1.066.991.488 1.479l-3.41 2.876a.835.835 0 0 0-.276.835l1.042 4.3c.176.728-.629 1.304-1.278.914l-3.832-2.305a.867.867 0 0 0-.892 0l-3.832 2.305c-.65.39-1.454-.186-1.278-.914l1.042-4.3a.834.834 0 0 0-.276-.835L63.3 6.949c-.578-.488-.27-1.42.488-1.48l4.476-.352a.854.854 0 0 0 .722-.516L70.71.519Zm21 0c.292-.692 1.288-.692 1.58 0L95.014 4.6c.124.291.402.49.722.516l4.476.353c.758.06 1.066.991.488 1.479l-3.41 2.876a.835.835 0 0 0-.276.835l1.042 4.3c.176.728-.629 1.304-1.278.914l-3.832-2.305a.867.867 0 0 0-.892 0l-3.832 2.305c-.65.39-1.454-.186-1.278-.914l1.042-4.3a.834.834 0 0 0-.276-.835L84.3 6.949c-.578-.488-.27-1.42.488-1.48l4.476-.352a.854.854 0 0 0 .722-.516L91.71.519Z"/></g><defs><clipPath id="a"><path fill="#fff" d="M0 0h101v16H0z"/></clipPath></defs></svg>