<!-- <svg xmlns="http://www.w3.org/2000/svg" width="28" height="28" fill="defould">
  <path d="M2.333 7A1.167 1.167 0 0 1 3.5 5.833h21a1.167 1.167 0 0 1 0 2.334h-21A1.167 1.167 0 0 1 2.333 7Zm0 7.037A1.167 1.167 0 0 1 3.5 12.871h21a1.167 1.167 0 1 1 0 2.333h-21a1.167 1.167 0 0 1-1.167-1.167ZM3.5 19.908a1.167 1.167 0 0 0 0 2.333h21a1.167 1.167 0 1 0 0-2.333h-21Z"/>
</svg> -->
<svg xmlns="http://www.w3.org/2000/svg" aria-hidden="true" style="position:absolute;width:0;height:0;overflow:hidden">
  <defs>
    <symbol id="burger-menu" viewBox="0 0 32 32">
  <path d="M2.333 7A1.167 1.167 0 0 1 3.5 5.833h21a1.167 1.167 0 0 1 0 2.334h-21A1.167 1.167 0 0 1 2.333 7Zm0 7.037A1.167 1.167 0 0 1 3.5 12.871h21a1.167 1.167 0 1 1 0 2.333h-21a1.167 1.167 0 0 1-1.167-1.167ZM3.5 19.908a1.167 1.167 0 0 0 0 2.333h21a1.167 1.167 0 1 0 0-2.333h-21Z"/>
    </symbol>
  </defs>
</svg>
